<?xml version="1.0" encoding="UTF-8"?>
<!DOCTYPE svg PUBLIC "-//W3C//DTD SVG 1.1//EN" "http://www.w3.org/Graphics/SVG/1.1/DTD/svg11.dtd">
<!-- Creator: CorelDRAW -->
<svg xmlns="http://www.w3.org/2000/svg" xml:space="preserve" width="224px" height="80px" version="1.1" style="shape-rendering:geometricPrecision; text-rendering:geometricPrecision; image-rendering:optimizeQuality; fill-rule:evenodd; clip-rule:evenodd"
viewBox="0 0 224 80"
 xmlns:xlink="http://www.w3.org/1999/xlink"
 xmlns:xodm="http://www.corel.com/coreldraw/odm/2003">
 <defs>
  <style type="text/css">
   <![CDATA[
    .fil2 {fill:#D8A93A}
    .fil0 {fill:url(#id0);fill-rule:nonzero}
    .fil1 {fill:url(#id1);fill-rule:nonzero}
   ]]>
  </style>
  <linearGradient id="id0" gradientUnits="userSpaceOnUse" x1="112" y1="75.59" x2="112" y2="51.31">
   <stop offset="0" style="stop-opacity:1; stop-color:#9E6738"/>
   <stop offset="1" style="stop-opacity:1; stop-color:#EEC331"/>
  </linearGradient>
  <linearGradient id="id1" gradientUnits="userSpaceOnUse" x1="97.31" y1="52.07" x2="126.6" y2="-2.41">
   <stop offset="0" style="stop-opacity:1; stop-color:#9F6939"/>
   <stop offset="0.501961" style="stop-opacity:1; stop-color:#F6CC2C"/>
   <stop offset="1" style="stop-opacity:1; stop-color:#AC7206"/>
  </linearGradient>
 </defs>
 <g id="Layer_x0020_1">
  <metadata id="CorelCorpID_0Corel-Layer"/>
  <g id="_3150728488432">
   <path class="fil0" d="M24.08 66.93l-0.88 8.13 -20.56 0 0 -0.59 0.76 0c0.67,0 1.22,-0.13 1.63,-0.37 0.29,-0.16 0.52,-0.43 0.68,-0.83 0.12,-0.27 0.19,-0.99 0.19,-2.17l0 -15.31c0,-1.19 -0.07,-1.94 -0.19,-2.24 -0.13,-0.3 -0.38,-0.56 -0.76,-0.78 -0.38,-0.23 -0.89,-0.34 -1.55,-0.34l-0.76 0 0 -0.6 12.36 0 0 0.6 -1.01 0c-0.67,0 -1.22,0.12 -1.63,0.36 -0.3,0.17 -0.53,0.44 -0.71,0.83 -0.12,0.28 -0.18,1 -0.18,2.17l0 14.82c0,1.19 0.07,1.95 0.2,2.27 0.14,0.33 0.4,0.57 0.8,0.73 0.29,0.1 0.98,0.16 2.06,0.16l1.93 0c1.23,0 2.25,-0.22 3.06,-0.65 0.82,-0.43 1.53,-1.12 2.13,-2.05 0.6,-0.94 1.16,-2.31 1.69,-4.14l0.74 0zm10.75 -13.76l0 9.45 0.47 0c1.47,0 2.54,-0.46 3.21,-1.38 0.66,-0.92 1.08,-2.28 1.26,-4.08l0.67 0 0 12.16 -0.67 0c-0.13,-1.33 -0.42,-2.41 -0.86,-3.26 -0.44,-0.84 -0.95,-1.41 -1.53,-1.7 -0.59,-0.29 -1.44,-0.44 -2.55,-0.44l0 6.53c0,1.28 0.06,2.05 0.17,2.34 0.1,0.29 0.31,0.52 0.61,0.7 0.29,0.18 0.77,0.28 1.43,0.28l1.39 0c2.17,0 3.91,-0.51 5.22,-1.5 1.3,-1 2.24,-2.53 2.81,-4.58l0.64 0 -1.05 7.37 -20.04 0 0 -0.59 0.76 0c0.67,0 1.22,-0.13 1.62,-0.37 0.3,-0.16 0.53,-0.43 0.69,-0.83 0.12,-0.27 0.18,-0.99 0.18,-2.17l0 -15.31c0,-1.05 -0.03,-1.7 -0.08,-1.95 -0.11,-0.4 -0.32,-0.71 -0.63,-0.93 -0.44,-0.32 -1.03,-0.48 -1.78,-0.48l-0.76 0 0 -0.6 19.4 0 0 6.87 -0.66 0c-0.33,-1.68 -0.79,-2.88 -1.39,-3.61 -0.6,-0.73 -1.44,-1.27 -2.53,-1.62 -0.64,-0.2 -1.83,-0.3 -3.58,-0.3l-2.42 0zm35.95 -1.34l0 6.28 -0.6 0c-0.36,-1.45 -0.77,-2.49 -1.21,-3.12 -0.44,-0.64 -1.06,-1.14 -1.83,-1.52 -0.44,-0.2 -1.2,-0.3 -2.28,-0.3l-1.75 0 0 17.93c0,1.2 0.06,1.95 0.19,2.24 0.13,0.3 0.39,0.57 0.76,0.79 0.38,0.23 0.89,0.34 1.55,0.34l0.76 0 0 0.59 -12.09 0 0 -0.59 0.76 0c0.67,0 1.21,-0.13 1.62,-0.37 0.29,-0.16 0.52,-0.43 0.69,-0.83 0.12,-0.27 0.19,-0.99 0.19,-2.17l0 -17.93 -1.69 0c-1.55,0 -2.68,0.33 -3.38,0.99 -0.99,0.92 -1.61,2.23 -1.87,3.95l-0.67 0 0 -6.28 20.85 0zm6.62 10.86l-0.82 0 -1.81 -6.54c-0.23,-0.81 -0.35,-1.55 -0.35,-2.24 0,-0.74 0.25,-1.36 0.73,-1.85 0.49,-0.5 1.1,-0.75 1.81,-0.75 0.81,0 1.44,0.26 1.88,0.79 0.44,0.52 0.66,1.09 0.66,1.71 0,0.51 -0.13,1.29 -0.39,2.33l-1.71 6.55zm20.84 -11.38l0.18 7.74 -0.71 0c-0.33,-1.94 -1.14,-3.5 -2.44,-4.68 -1.3,-1.18 -2.7,-1.76 -4.21,-1.76 -1.16,0 -2.09,0.3 -2.76,0.93 -0.69,0.62 -1.03,1.34 -1.03,2.14 0,0.52 0.13,0.97 0.37,1.37 0.32,0.54 0.85,1.07 1.59,1.59 0.54,0.38 1.78,1.05 3.71,2.01 2.73,1.33 4.56,2.59 5.5,3.77 0.94,1.19 1.41,2.54 1.41,4.07 0,1.94 -0.76,3.61 -2.27,5 -1.51,1.4 -3.43,2.1 -5.76,2.1 -0.73,0 -1.43,-0.08 -2.08,-0.22 -0.65,-0.15 -1.47,-0.43 -2.45,-0.85 -0.55,-0.22 -1,-0.33 -1.35,-0.33 -0.3,0 -0.61,0.11 -0.94,0.34 -0.34,0.23 -0.6,0.59 -0.81,1.06l-0.59 0 0 -8.76 0.59 0c0.5,2.46 1.47,4.34 2.9,5.63 1.44,1.29 2.98,1.94 4.64,1.94 1.28,0 2.3,-0.35 3.06,-1.05 0.76,-0.69 1.14,-1.5 1.14,-2.43 0,-0.54 -0.15,-1.07 -0.44,-1.59 -0.29,-0.51 -0.73,-0.99 -1.32,-1.46 -0.6,-0.46 -1.65,-1.06 -3.16,-1.81 -2.11,-1.03 -3.63,-1.92 -4.55,-2.65 -0.92,-0.73 -1.63,-1.54 -2.12,-2.44 -0.5,-0.91 -0.74,-1.9 -0.74,-2.98 0,-1.85 0.67,-3.43 2.03,-4.73 1.36,-1.3 3.07,-1.95 5.14,-1.95 0.75,0 1.48,0.09 2.19,0.27 0.53,0.14 1.19,0.39 1.96,0.76 0.77,0.36 1.31,0.55 1.62,0.55 0.29,0 0.53,-0.09 0.7,-0.27 0.17,-0.18 0.33,-0.62 0.47,-1.31l0.53 0zm28.24 0l0.18 7.74 -0.7 0c-0.33,-1.94 -1.15,-3.5 -2.44,-4.68 -1.3,-1.18 -2.71,-1.76 -4.21,-1.76 -1.17,0 -2.09,0.3 -2.77,0.93 -0.68,0.62 -1.02,1.34 -1.02,2.14 0,0.52 0.12,0.97 0.36,1.37 0.33,0.54 0.86,1.07 1.59,1.59 0.54,0.38 1.78,1.05 3.72,2.01 2.72,1.33 4.55,2.59 5.5,3.77 0.94,1.19 1.4,2.54 1.4,4.07 0,1.94 -0.75,3.61 -2.27,5 -1.51,1.4 -3.43,2.1 -5.76,2.1 -0.73,0 -1.42,-0.08 -2.07,-0.22 -0.66,-0.15 -1.47,-0.43 -2.45,-0.85 -0.55,-0.22 -1,-0.33 -1.36,-0.33 -0.3,0 -0.61,0.11 -0.94,0.34 -0.33,0.23 -0.6,0.59 -0.81,1.06l-0.59 0 0 -8.76 0.59 0c0.51,2.46 1.48,4.34 2.91,5.63 1.43,1.29 2.98,1.94 4.63,1.94 1.28,0 2.3,-0.35 3.06,-1.05 0.76,-0.69 1.14,-1.5 1.14,-2.43 0,-0.54 -0.15,-1.07 -0.44,-1.59 -0.29,-0.51 -0.73,-0.99 -1.32,-1.46 -0.6,-0.46 -1.65,-1.06 -3.15,-1.81 -2.12,-1.03 -3.64,-1.92 -4.56,-2.65 -0.92,-0.73 -1.62,-1.54 -2.12,-2.44 -0.49,-0.91 -0.74,-1.9 -0.74,-2.98 0,-1.85 0.68,-3.43 2.04,-4.73 1.35,-1.3 3.06,-1.95 5.13,-1.95 0.75,0 1.48,0.09 2.19,0.27 0.54,0.14 1.19,0.39 1.96,0.76 0.77,0.36 1.31,0.55 1.62,0.55 0.3,0 0.53,-0.09 0.7,-0.27 0.17,-0.18 0.33,-0.62 0.48,-1.31l0.52 0zm19.73 15.84l6.34 -15.32 9.39 0 0 0.6 -0.75 0c-0.68,0 -1.23,0.12 -1.63,0.37 -0.29,0.16 -0.52,0.43 -0.69,0.82 -0.12,0.28 -0.18,1 -0.18,2.17l0 15.31c0,1.2 0.06,1.95 0.18,2.24 0.13,0.3 0.38,0.57 0.77,0.79 0.39,0.23 0.9,0.34 1.55,0.34l0.75 0 0 0.59 -12.08 0 0 -0.59 0.75 0c0.68,0 1.23,-0.13 1.64,-0.37 0.28,-0.16 0.51,-0.43 0.68,-0.83 0.12,-0.27 0.19,-0.99 0.19,-2.17l0 -17.19 -8.93 21.15 -0.41 0 -9.04 -20.99 0 16.33c0,1.15 0.03,1.86 0.09,2.12 0.15,0.57 0.47,1.04 0.97,1.4 0.49,0.36 1.27,0.55 2.34,0.55l0 0.59 -7.95 0 0 -0.59 0.24 0c0.52,0.01 0.99,-0.07 1.44,-0.25 0.45,-0.19 0.78,-0.43 1.01,-0.72 0.23,-0.3 0.41,-0.72 0.53,-1.26 0.02,-0.13 0.03,-0.72 0.03,-1.77l0 -14.68c0,-1.19 -0.05,-1.94 -0.18,-2.23 -0.13,-0.3 -0.38,-0.56 -0.77,-0.79 -0.4,-0.23 -0.91,-0.34 -1.56,-0.34l-0.74 0 0 -0.6 9.47 0 6.55 15.32zm29.15 7.32l0 0.59 -12.09 0 0 -0.59 0.76 0c0.68,0 1.22,-0.13 1.63,-0.37 0.3,-0.16 0.52,-0.43 0.68,-0.83 0.12,-0.27 0.19,-0.99 0.19,-2.17l0 -15.31c0,-1.19 -0.07,-1.94 -0.19,-2.24 -0.13,-0.3 -0.38,-0.56 -0.76,-0.78 -0.38,-0.23 -0.89,-0.34 -1.55,-0.34l-0.76 0 0 -0.6 12.09 0 0 0.6 -0.77 0c-0.66,0 -1.2,0.12 -1.61,0.36 -0.29,0.17 -0.53,0.44 -0.69,0.83 -0.13,0.28 -0.19,1 -0.19,2.17l0 15.31c0,1.2 0.06,1.95 0.19,2.24 0.13,0.3 0.39,0.57 0.77,0.79 0.38,0.23 0.89,0.34 1.53,0.34l0.77 0zm22.98 -7.54l-0.87 8.13 -20.57 0 0 -0.59 0.77 0c0.67,0 1.21,-0.13 1.62,-0.37 0.3,-0.16 0.53,-0.43 0.68,-0.83 0.13,-0.27 0.19,-0.99 0.19,-2.17l0 -15.31c0,-1.19 -0.06,-1.94 -0.19,-2.24 -0.12,-0.3 -0.38,-0.56 -0.75,-0.78 -0.38,-0.23 -0.9,-0.34 -1.55,-0.34l-0.77 0 0 -0.6 12.37 0 0 0.6 -1.02 0c-0.67,0 -1.21,0.12 -1.63,0.36 -0.29,0.17 -0.53,0.44 -0.7,0.83 -0.12,0.28 -0.19,1 -0.19,2.17l0 14.82c0,1.19 0.07,1.95 0.21,2.27 0.13,0.33 0.4,0.57 0.8,0.73 0.28,0.1 0.97,0.16 2.06,0.16l1.92 0c1.23,0 2.25,-0.22 3.07,-0.65 0.82,-0.43 1.53,-1.12 2.13,-2.05 0.59,-0.94 1.16,-2.31 1.69,-4.14l0.73 0zm10.76 -13.76l0 9.45 0.46 0c1.48,0 2.55,-0.46 3.21,-1.38 0.66,-0.92 1.09,-2.28 1.27,-4.08l0.66 0 0 12.16 -0.66 0c-0.13,-1.33 -0.43,-2.41 -0.86,-3.26 -0.45,-0.84 -0.96,-1.41 -1.54,-1.7 -0.58,-0.29 -1.43,-0.44 -2.54,-0.44l0 6.53c0,1.28 0.05,2.05 0.16,2.34 0.11,0.29 0.31,0.52 0.61,0.7 0.3,0.18 0.78,0.28 1.44,0.28l1.39 0c2.16,0 3.9,-0.51 5.21,-1.5 1.31,-1 2.25,-2.53 2.81,-4.58l0.64 0 -1.04 7.37 -20.05 0 0 -0.59 0.77 0c0.67,0 1.21,-0.13 1.62,-0.37 0.3,-0.16 0.53,-0.43 0.68,-0.83 0.13,-0.27 0.19,-0.99 0.19,-2.17l0 -15.31c0,-1.05 -0.03,-1.7 -0.09,-1.95 -0.11,-0.4 -0.32,-0.71 -0.63,-0.93 -0.43,-0.32 -1.02,-0.48 -1.77,-0.48l-0.77 0 0 -0.6 19.41 0 0 6.87 -0.67 0c-0.32,-1.68 -0.79,-2.88 -1.39,-3.61 -0.59,-0.73 -1.43,-1.27 -2.52,-1.62 -0.64,-0.2 -1.83,-0.3 -3.58,-0.3l-2.42 0z"/>
   <path class="fil1" d="M70.84 46.71l0 -18.04c-8.84,0.7 -17.45,3.21 -25.55,8.8 50.3,-45.73 101.15,11.46 133.42,-21.03 -5.74,10.45 -12.72,16.35 -20.57,19.34 -0.16,1.52 -0.54,3.06 -1.14,4.63 -1.01,2.55 -3.22,4.71 -6.65,6.47 -3.42,1.76 -7.26,2.64 -11.5,2.64 -4.48,0 -8.54,-1.03 -12.19,-3.09l-7.4 3.22 -1.71 0 -0.48 -14.74c-1.5,-0.32 -3.01,-0.65 -4.52,-0.99l0 14.64 -46.78 0 0 -1.85 5.07 0zm21.02 -16.93l0 16.93c4.16,0.18 7.31,-0.25 9.46,-1.3 2.14,-1.05 4.01,-2.86 5.61,-5.41 0.98,-1.99 1.86,-4.23 2.64,-6.74 -5.86,-1.29 -11.78,-2.57 -17.71,-3.48zm50.73 8.6c-7.94,-0.39 -14.01,-1.11 -21.8,-2.69 3.69,6.6 8.41,10.48 14.15,11.63 0.37,0.1 0.86,0.17 1.48,0.21 0.61,0.05 1.29,0.11 2.02,0.21 2.19,0 3.87,-0.45 5.03,-1.34 1.17,-0.89 1.75,-2 1.75,-3.32 0,-2 -0.88,-3.57 -2.63,-4.7zm-71.75 -18.82l0 -16.62 -5.07 0 0 -1.85 32.12 0 0 1.85 -6.03 0 0 13.35c-6.91,0.04 -13.94,0.95 -21.02,3.27zm74.38 -16.75l7.53 -2.81 1.58 0 0.54 15.75 -1.85 0c-1.96,-4.61 -4.67,-8.08 -8.14,-10.41 -3.48,-2.33 -6.83,-3.49 -10.07,-3.49 -3.56,0 -5.62,1.62 -6.17,4.86 0.05,1.1 0.54,2.03 1.48,2.81 0.93,0.78 2.56,1.75 4.89,2.91 2.33,1.16 3.86,1.93 4.59,2.29l11.64 6.03c1.16,0.5 2.41,1.69 3.76,3.57 -11.34,0.69 -23.87,-2.52 -37.13,-5.09 -0.29,-1.12 -0.44,-2.28 -0.46,-3.48 0.14,-1.92 0.46,-3.74 0.96,-5.48 0.96,-3.15 2.87,-5.62 5.72,-7.43 2.85,-1.8 6.15,-2.7 9.9,-2.7 4.06,0 7.8,0.89 11.23,2.67z"/>
   <polygon class="fil2" points="0.28,78.34 223.72,78.34 223.72,80 0.28,80 "/>
   <path class="fil2" d="M155.29 46.9l68.43 0 0 1.65 -72.65 0c1.47,-0.42 2.87,-0.97 4.22,-1.65z"/>
   <polygon class="fil2" points="0.28,46.9 61.63,46.9 61.63,48.55 0.28,48.55 "/>
  </g>
 </g>
</svg>
